<svg viewBox="0 0 317 415" xmlns="http://www.w3.org/2000/svg"><path d="m -146.26037,721.94061 q -3.73252,59.72045 -42.92407,98.28991 -37.94737,37.94736 -83.35979,37.94736 -54.12166,0 -73.40639,-28.61604 -8.70923,-12.44176 -11.19758,-29.23814 -2.48835,-16.79638 -2.48835,-40.43572 v -130.0164 h -31.72649 l -24.88352,-32.97066 h 59.09836 v -69.67386 q 0,-24.26143 -21.77308,-24.26143 -4.97671,0 -9.33132,2.48835 -3.73253,1.86627 -8.70923,3.73253 l -12.44176,-34.83693 q 19.90681,-8.08714 35.45901,-8.08714 27.99396,0 40.43572,18.66264 13.06385,18.66264 13.06385,61.58671 v 50.38913 h 34.21484 l 26.74979,32.97066 h -60.96463 v 161.1208 q 1.86626,31.1044 36.08111,31.1044 32.34857,0 57.85418,-27.37187 25.50561,-27.37188 25.50561,-61.58672 -8.70923,1.86627 -15.5522,1.86627 -18.04055,0 -28.61605,-10.5755 -10.5755,-10.57549 -10.5755,-31.1044 0,-24.26143 13.06385,-36.0811 13.06385,-12.44176 33.59276,-12.44176 62.83088,0 62.83088,77.13891 z"/></svg>
