<svg viewBox="0 0 640 512" xmlns="http://www.w3.org/2000/svg"><path d="m 161.83804,348.07117 c 2.00267,1.71719 4.06612,3.6102 6.68058,4.28591 2.12307,0.47022 3.6291,-1.53365 4.46819,-3.20082 1.63041,-2.91796 2.25956,-6.53023 0.95358,-9.69268 -1.65131,-4.10891 -5.86873,-7.21516 -10.37948,-7.00323 -3.82123,-0.0486 -7.71785,1.58613 -9.99535,4.72598 -3.0675,3.84307 -3.82091,9.09139 -3.09756,13.84294 0.80007,4.945 5.02139,9.43049 10.18704,9.58984 3.58295,0.1532 7.13392,-0.89904 10.26407,-2.59608 0.29026,0.60126 0.58053,1.20251 0.87079,1.80377 -4.23421,1.97653 -9.05051,3.45683 -13.7149,2.22363 -3.43119,-0.85079 -6.34402,-3.1524 -8.59962,-5.80069 -3.27968,-3.87069 -4.31558,-9.44338 -2.6662,-14.23618 1.72856,-4.94605 6.03984,-8.75747 10.92061,-10.47529 4.58996,-1.49195 10.0832,-1.43436 14.0629,1.57894 4.50924,3.29049 5.86325,9.71182 3.95615,14.80581 -1.00367,2.47371 -2.3386,5.25763 -4.98134,6.2942 -2.02164,0.7976 -3.99693,-0.54677 -5.8085,-1.29603 -3.13182,-1.49481 -6.16373,-3.35321 -9.58966,-4.10363 -0.82932,-1.90744 -1.65865,-3.81487 -2.48797,-5.72231 2.88992,1.92856 6.78705,2.83933 10.01406,1.18178 1.45688,-0.67019 2.63603,-2.61629 1.60162,-4.09931 -0.64061,-0.84007 -2.47888,-1.5935 -3.24601,-0.82341 -0.37294,2.37574 -3.20266,4.24784 -5.45603,3.08007 -1.53202,-1.16589 -1.07458,-3.82656 0.51387,-4.75653 2.96299,-1.98417 7.55405,-1.94996 9.93753,0.93518 1.90393,2.56193 0.7817,6.50676 -1.82261,8.15706 -0.79338,0.55591 -1.67659,0.97274 -2.58576,1.30108 z"/></svg>
