<svg viewBox="0 0 455 475" xmlns="http://www.w3.org/2000/svg"><path d="m 235.50539,260.65876 c 29.84687,25.59221 60.59954,53.80473 99.56425,63.87522 31.64124,7.00794 54.0864,-22.85679 66.59179,-47.70354 24.29887,-43.48791 33.67543,-97.32348 14.21171,-144.45517 C 391.26279,71.137991 328.40835,24.843882 261.18222,28.002406 204.23241,27.278075 146.15901,51.641339 112.21619,98.436199 66.499609,155.71152 55.271149,233.93003 66.051619,304.7449 c 11.92388,73.69799 74.836441,140.54763 151.822891,142.92251 53.39862,2.28321 106.32062,-13.39888 152.97088,-38.69078 4.32592,8.96091 8.65196,17.92165 12.97787,26.88256 -63.10471,29.45728 -134.88456,51.519 -204.40045,33.13994 C 128.28595,456.31937 84.874489,422.01724 51.258049,382.54834 2.3792389,324.86142 -13.059316,241.80864 11.522279,170.37898 37.283929,96.665374 101.53723,39.861739 174.27792,14.260144 c 68.40666,-22.2353011 150.27534,-21.3770185 209.5869,23.531795 67.20362,49.039935 87.38316,144.740421 58.96062,220.658891 -14.95823,36.867 -34.85339,78.35723 -74.23955,93.80581 -30.12957,11.88705 -59.56839,-8.1488 -86.56719,-19.31543 C 235.34352,310.66325 190.15738,282.96654 139.0989,271.78264 126.7391,243.35501 114.37917,214.92758 102.01937,186.5 c 43.07,28.74233 101.15101,42.31602 149.24484,17.61269 21.71267,-9.98819 39.28617,-38.99196 23.86981,-61.09422 -9.54734,-12.52002 -36.94405,-23.74879 -48.377,-12.27171 -5.55813,35.40694 -47.73098,63.30783 -81.31414,45.90393 -22.8325,-17.37587 -16.01502,-57.02927 7.6585,-70.88912 44.15901,-29.571123 112.58203,-29.061264 148.10427,13.93749 28.3753,38.18183 11.6501,96.97372 -27.16331,121.56904 -11.82416,8.285 -24.98712,14.49723 -38.53695,19.39066 z"/></svg>
