<svg viewBox="0 0 314 314" xmlns="http://www.w3.org/2000/svg">
  <path style="/* fill:#000000; *//* stroke-width:0.450287; */" d="M 146.89669,308.01067 C 86.523651,304.051 33.257566,262.90946 14.042967,205.39738 -2.9076556,154.66174 7.8242952,99.678936 42.698552,58.586771 47.060986,53.44651 57.295954,43.598466 63.137339,38.920598 85.834268,20.744598 114.0875,9.3284419 143.06925,6.6228575 c 7.64025,-0.7132541 23.02463,-0.595435 30.6195,0.2344877 51.05665,5.5791608 95.56286,36.5582158 118.70191,82.6238038 11.39532,22.685931 16.49018,45.834871 15.79381,71.760641 -0.60409,22.49125 -5.20122,41.64032 -14.76372,61.49744 -25.40505,52.75524 -79.04687,86.17251 -137.24599,85.50027 -3.86465,-0.0448 -8.03978,-0.14762 -9.27807,-0.22883 z M 300.21942,193.03752 c 0,-0.51232 -0.44291,-1.10417 -1.01313,-1.35382 -0.55724,-0.24401 -6.03103,-1.45543 -12.16401,-2.69209 -10.68297,-2.15412 -11.46132,-2.24845 -18.54977,-2.24845 h -7.39891 l -13.19546,-3.13864 -13.19549,-3.13863 -32.42067,-0.40628 c -17.83135,-0.22347 -32.55269,-0.33118 -32.71406,-0.23935 -0.16138,0.0919 -0.43456,1.38312 -0.60707,2.86951 l -0.31367,2.70253 h -12.27453 -12.27453 l -0.28639,-2.74004 c -0.15754,-1.50702 -0.40098,-2.9254 -0.54101,-3.152 -0.15011,-0.24289 -13.4128,-0.41196 -32.311,-0.41193 l -32.056377,7e-5 -14.634327,2.95978 c -14.232327,2.87846 -14.782768,2.95419 -20.037776,2.75667 -5.273051,-0.19821 -5.664241,-0.1436 -16.21033,2.26151 -5.943796,1.35554 -10.848277,2.50351 -10.89885,2.55105 -0.0506,0.0474 -0.228361,0.93947 -0.395087,1.98212 l -0.303129,1.89569 89.101636,0.11486 c 49.00591,0.0632 112.85989,0.16497 141.89778,0.22628 52.71938,0.11137 52.79616,0.11013 52.79616,-0.7988 z m -32.87094,-14.10696 v -6.01145 l -4.12177,-0.29257 c -9.01294,-0.63975 -16.1621,-0.36217 -21.45728,0.83315 -4.57672,1.03314 -5.88714,1.12571 -15.93318,1.12571 h -10.94633 l -6.30397,1.74555 -6.30397,1.74554 2.92687,0.26623 c 1.60978,0.14642 9.00575,0.36597 16.43549,0.48788 l 13.50861,0.22166 12.83317,2.90489 c 8.9325,2.02192 13.82546,2.91702 16.09777,2.94486 l 3.26459,0.0401 z m -99.96373,4.46535 c 0,-0.86069 -0.26568,-1.12638 -1.23829,-1.23829 -1.10803,-0.12748 -1.25287,-0.34378 -1.37676,-2.0562 l -0.13846,-1.91372 h 13.08766 13.08763 l -0.11597,-27.80524 -0.11599,-27.80523 -13.39604,-0.1192 -13.39604,-0.11934 v 26.34851 26.34848 h -3.60228 -3.60231 v -9.00573 c 0,-4.95317 0.052,-9.00575 0.11561,-9.00575 0.0636,0 0.82191,0.20258 1.68525,0.45019 0.86336,0.2476 2.22977,0.32637 3.03647,0.17502 1.43742,-0.26966 1.46674,-0.32311 1.46674,-2.67331 v -2.39816 l -1.5063,0.24444 c -1.64221,0.26649 -4.21663,-0.78713 -4.64392,-1.90061 -0.8382,-2.18433 -1.07684,0.4876 -1.03762,11.61845 l 0.0432,12.27031 -2.29534,0.1366 -2.29536,0.13658 0.0282,-11.39376 c 0.0156,-6.26656 0.0219,-18.13119 0.0139,-26.36582 l -0.0144,-14.97205 h -13.50857 -13.50862 v 27.69266 27.69265 h 12.38288 12.38291 v 2.25144 c 0,1.2383 -0.15197,2.22743 -0.33773,2.19812 -0.18573,-0.0294 -0.99624,-0.0294 -1.80114,0 -1.24658,0.0454 -1.46343,0.22013 -1.46343,1.17905 v 1.12572 h 11.03203 11.03204 z m -103.844193,-3.00501 15.362786,-3.20025 16.548052,0.2274 c 9.101425,0.12509 16.548045,0.15551 16.548045,0.0676 0,-0.0879 -2.66491,-0.9974 -5.922,-2.02115 l -5.922,-1.86132 -11.301494,-0.1747 c -10.406349,-0.16085 -11.6222,-0.26461 -15.350892,-1.31005 -3.840417,-1.07673 -4.636378,-1.13533 -15.422329,-1.13533 H 46.707823 v 6.04135 c 0,5.7575 0.104756,6.28472 1.29783,6.53115 0.09463,0.0195 7.085363,-1.40455 15.534904,-3.1647 z m 141.218013,-4.83039 7.88003,-2.60712 -0.15798,-21.81092 c -0.0868,-11.996 -0.24715,-21.90365 -0.35615,-22.01697 -0.18142,-0.18864 -17.19532,2.03136 -19.31344,2.52005 -0.85383,0.19698 -0.90725,0.50538 -0.79294,4.5772 0.0675,2.40129 0.24994,12.82574 0.40559,23.16548 l 0.283,18.79947 2.08592,-0.0103 c 1.31101,-0.006 5.01335,-0.97858 9.96597,-2.61716 z m -1.6142,-5.21746 c -3.93393,-1.71282 -5.36895,-7.72967 -2.8252,-11.84552 2.65393,-4.29415 8.20105,-3.49763 10.09014,1.44889 1.55998,4.08476 -0.15122,8.93908 -3.66935,10.40904 -1.80176,0.75283 -1.83838,0.75271 -3.59559,-0.0124 z m -81.01318,-16.04067 c 0.1841,-12.6416 0.2393,-23.08019 0.12257,-23.19684 -0.30123,-0.30124 -19.67289,-3.09086 -19.88043,-2.8629 -0.0944,0.10366 -0.24659,10.01585 -0.33844,22.02727 l -0.16696,21.83891 7.65487,2.55168 c 5.06053,1.68685 8.43754,2.56436 9.96421,2.58913 l 2.30937,0.0375 0.33474,-22.98477 z m -15.06037,14.99146 c -4.58214,-2.32524 -4.799,-10.92018 -0.3441,-13.63647 4.13512,-2.52132 8.63386,1.03733 8.60672,6.80816 -0.0139,2.96802 -1.08383,5.10052 -3.31238,6.60234 -1.81004,1.21978 -2.89427,1.26929 -4.95024,0.22597 z m 126.50409,-11.25648 c -0.003,-8.11079 -0.13055,-16.97584 -0.28758,-19.70007 l -0.2855,-4.95316 -8.83075,-1.76024 c -4.85691,-0.96812 -9.08405,-1.85099 -9.39361,-1.96188 -0.44524,-0.15953 -0.56287,4.27834 -0.56287,21.23516 0,21.13661 0.0127,21.4368 0.90056,21.4368 0.80053,0 0.90059,-0.30019 0.90059,-2.70172 v -2.70173 h 3.82743 3.82746 v 2.92687 2.92687 h 4.95315 4.95315 l -0.003,-14.7469 z m -15.87057,2.26662 c -1.41172,-0.21385 -1.52961,-0.94549 -0.82359,-5.11078 0.2281,-1.34569 0.86796,-5.94387 1.42191,-10.21816 0.55395,-4.27431 1.08212,-7.69655 1.17367,-7.60497 0.1667,0.16669 4.19431,22.12052 4.19431,22.86252 0,0.39014 -3.57944,0.43297 -5.9663,0.0714 z m 22.85206,11.12942 c 2.45341,-0.50481 6.136,-0.90059 8.37987,-0.90059 h 4.00301 l -0.0592,-11.36973 c -0.0326,-6.25337 -0.18455,-13.67996 -0.33772,-16.50355 l -0.27848,-5.13381 -6.97945,-1.65549 c -3.83869,-0.9105 -7.53669,-1.79556 -8.21772,-1.9668 l -1.2383,-0.3113 v 19.37092 c 0,10.65401 0.0789,19.37092 0.17557,19.37092 0.0965,0 2.14517,-0.40526 4.55244,-0.90057 z m 5.62857,-8.93778 c 0,-0.21028 0.50657,-4.21219 1.1257,-8.89317 0.61914,-4.68099 1.14172,-8.81479 1.16128,-9.18628 0.0195,-0.37149 0.11672,-0.4728 0.21594,-0.22515 0.14456,0.36086 2.90053,17.96955 2.90053,18.53226 0,0.0851 -1.21578,0.15468 -2.70171,0.15468 -1.48596,0 -2.70174,-0.17207 -2.70174,-0.38234 z m -155.34902,6.69491 c 0,-3.13888 0.255096,-3.30406 4.746777,-3.07328 l 2.682966,0.13785 0.225137,2.69776 c 0.17548,2.1027 0.398954,2.73075 1.013152,2.84732 0.741578,0.14073 0.788008,-1.12131 0.788008,-21.43067 v -21.58019 l -9.118328,1.84714 c -5.015071,1.0159 -9.3716,2.01103 -9.681168,2.21138 -0.435904,0.28213 -0.562861,4.72595 -0.562861,19.70008 v 19.33576 h 4.953152 4.953165 z m 0,-10.02722 c 0,-0.91377 3.973187,-22.47272 4.179627,-22.67916 0.09808,-0.0981 0.4144,1.79853 0.703021,4.2146 0.288622,2.41607 0.964095,7.50003 1.501051,11.29771 0.765436,5.41362 0.855731,6.97934 0.418164,7.24979 -0.306969,0.18972 -1.962971,0.38596 -3.680002,0.43609 -2.371292,0.0693 -3.121861,-0.0555 -3.121861,-0.51903 z m -12.157748,-6.86713 c 0,-18.59802 -0.02437,-19.13719 -0.868061,-19.13719 -1.029853,0 -15.310958,3.42089 -15.635349,3.74529 -0.123104,0.12306 -0.312628,5.25765 -0.421191,11.41016 -0.108547,6.1525 -0.279534,13.46592 -0.379956,16.25207 l -0.182584,5.06574 3.902985,0.017 c 2.14664,0.008 5.726647,0.39083 7.955561,0.84784 2.228927,0.45699 4.407188,0.85463 4.840591,0.88363 0.738935,0.0495 0.788004,-1.13864 0.788004,-19.08444 z m -15.760048,9.54667 c 0,-0.76905 2.717526,-18.49314 2.856791,-18.63241 0.245359,-0.24536 2.524064,18.43917 2.294151,18.81119 -0.412602,0.66761 -5.150942,0.50315 -5.150942,-0.17878 z m 204.880606,-5.89904 v -15.03925 l -5.74115,-0.29664 c -3.15765,-0.16313 -6.0901,-0.33553 -6.51659,-0.38306 -0.70403,-0.0785 -0.78833,0.67014 -0.91578,8.13132 -0.0771,4.51976 -0.0129,8.21775 0.14278,8.21775 0.15572,0 0.64986,-0.40527 1.09812,-0.90057 0.44827,-0.49534 1.06659,-0.90059 1.37405,-0.90059 0.58243,0 2.64459,3.16846 7.39988,11.36976 1.54366,2.66232 2.88587,4.84059 2.98268,4.84059 0.0969,0 0.17601,-6.76768 0.17601,-15.03931 z m -208.4829,-1.39617 v -15.08463 h -6.304018 -6.304019 v 15.08463 15.08461 h 6.304019 6.304018 z m 102.9449,-26.67952 -0.23906,-5.29089 h -4.63564 -4.63564 v 4.50289 c 0,6.61761 -0.44666,6.07887 5.03978,6.07887 h 4.70962 z m -46.39206,0.0619 c 1.01506,-0.25477 1.08391,-0.47099 1.08391,-3.40444 v -3.1324 l -1.79155,1.2675 c -1.70472,1.20606 -1.792,1.38437 -1.80114,3.67968 -0.007,2.02388 0.10579,2.36786 0.70762,2.13693 0.39453,-0.15138 1.20504,-0.39765 1.80116,-0.54727 z m 6.69906,-3.04032 c -0.17579,-1.76714 -0.54862,-3.36183 -0.82853,-3.54379 -0.2799,-0.18196 -1.16744,-0.33393 -1.97236,-0.33771 l -1.46341,-0.007 v 3.35065 3.35064 l 1.91372,0.40221 c 1.05253,0.22122 2.08391,0.31124 2.29196,0.20003 0.20802,-0.11113 0.23439,-1.648 0.0587,-3.41514 z m 73.29764,3.02709 c 0.66144,-0.18623 0.78801,-0.76869 0.78801,-3.62622 v -3.40437 l -1.89682,0.3033 c -1.04325,0.16683 -1.93477,0.34471 -1.98116,0.39528 -0.0465,0.0507 -0.23182,1.68411 -0.41205,3.63007 l -0.32774,3.53811 1.52088,-0.30713 c 0.83649,-0.16895 1.87548,-0.40702 2.30888,-0.52904 z m 5.74117,-1.4586 c 0,-1.97471 -0.15706,-2.31779 -1.54598,-3.37715 -0.85027,-0.64854 -1.66078,-1.17918 -1.80114,-1.17918 -0.14035,0 -0.25518,1.30022 -0.25518,2.88935 0,2.74218 0.0631,2.91239 1.23829,3.34161 2.18643,0.79855 2.36401,0.67276 2.36401,-1.67463 z m -16.21033,-7.0329 c 0,-1.11247 -0.0452,-1.12571 -3.82744,-1.12571 -2.25144,0 -3.82745,-0.1854 -3.82745,-0.4503 0,-0.29371 -7.27078,-0.45026 -20.91178,-0.45026 -13.45547,0 -21.01099,0.16053 -21.19006,0.45026 -0.15306,0.24767 -1.48212,0.4503 -2.95345,0.4503 -2.5533,0 -2.67514,0.0513 -2.67514,1.12571 v 1.12573 h 27.69267 27.69265 z" id="path2782"/>
</svg>
